<svg xmlns="http://www.w3.org/2000/svg" width="17.239" height="19.702" viewBox="0 0 17.239 19.702">
  <path id="Icon_awesome-calculator" data-name="Icon awesome-calculator" d="M15.392,0H1.847A1.894,1.894,0,0,0,0,1.847V17.855A1.894,1.894,0,0,0,1.847,19.7H15.392a1.894,1.894,0,0,0,1.847-1.847V1.847A1.894,1.894,0,0,0,15.392,0ZM4.926,16.747a.53.53,0,0,1-.493.493H2.955a.53.53,0,0,1-.493-.493V15.269a.53.53,0,0,1,.493-.493H4.433a.53.53,0,0,1,.493.493Zm0-4.926a.53.53,0,0,1-.493.493H2.955a.53.53,0,0,1-.493-.493V10.344a.53.53,0,0,1,.493-.493H4.433a.53.53,0,0,1,.493.493Zm4.926,4.926a.53.53,0,0,1-.493.493H7.881a.53.53,0,0,1-.493-.493V15.269a.53.53,0,0,1,.493-.493H9.358a.53.53,0,0,1,.493.493Zm0-4.926a.53.53,0,0,1-.493.493H7.881a.53.53,0,0,1-.493-.493V10.344a.53.53,0,0,1,.493-.493H9.358a.53.53,0,0,1,.493.493Zm4.926,4.926a.53.53,0,0,1-.493.493H12.806a.53.53,0,0,1-.493-.493v-6.4a.53.53,0,0,1,.493-.493h1.478a.53.53,0,0,1,.493.493Zm0-9.851a.53.53,0,0,1-.493.493H2.955A.53.53,0,0,1,2.463,6.9V2.955a.53.53,0,0,1,.493-.493H14.284a.53.53,0,0,1,.493.493Z" fill="#fff"/>
</svg>
