<svg xmlns="http://www.w3.org/2000/svg" width="20" height="15" viewBox="0 0 20 15">
  <path id="Icon_metro-credit-card" data-name="Icon metro-credit-card" d="M20.7,5.784H4.446A1.881,1.881,0,0,0,2.571,7.659v11.25a1.881,1.881,0,0,0,1.875,1.875H20.7a1.881,1.881,0,0,0,1.875-1.875V7.659A1.881,1.881,0,0,0,20.7,5.784ZM4.446,7.034H20.7a.633.633,0,0,1,.625.625V9.534H3.821V7.659a.633.633,0,0,1,.625-.625Zm16.25,12.5H4.446a.633.633,0,0,1-.625-.625V13.284h17.5v5.625A.633.633,0,0,1,20.7,19.534ZM5.071,15.784h1.25v2.5H5.071Zm2.5,0h1.25v2.5H7.571Zm2.5,0h1.25v2.5h-1.25Z" transform="translate(-2.571 -5.784)" fill="#fff"/>
</svg>
