<svg xmlns="http://www.w3.org/2000/svg" width="18.114" height="20.702" viewBox="0 0 18.114 20.702">
  <path id="Icon_metro-clipboard" data-name="Icon metro-clipboard" d="M21.966,4.516H16.144a2.588,2.588,0,1,0-5.175,0H5.146a.647.647,0,0,0-.647.647v16.82a.647.647,0,0,0,.647.647h16.82a.647.647,0,0,0,.647-.647V5.163a.647.647,0,0,0-.647-.647Zm-8.41-1.294a1.294,1.294,0,1,1-1.294,1.294A1.294,1.294,0,0,1,13.556,3.222Zm7.763,18.114H5.793V5.81H8.38V7.75a.647.647,0,0,0,.647.647h9.057a.647.647,0,0,0,.647-.647V5.81h2.588Zm-9.057-2.052-4.15-4.8L9.3,13.3l2.967,2.32,5.554-4.907L19,11.9Z" transform="translate(-4.499 -1.928)" fill="#fff"/>
</svg>
