<svg xmlns="http://www.w3.org/2000/svg" width="17.005" height="22.674" viewBox="0 0 17.005 22.674">
  <path id="Trazado_3158" data-name="Trazado 3158" d="M12.754,503.982v1.24a.534.534,0,0,1-.532.532H4.783a.533.533,0,0,1-.531-.532v-1.24a.532.532,0,0,1,.531-.531h7.439A.533.533,0,0,1,12.754,503.982Zm-.532,3.189H4.783a.532.532,0,0,0-.531.531v1.24a.533.533,0,0,0,.531.532h7.439a.534.534,0,0,0,.532-.532V507.7A.533.533,0,0,0,12.222,507.171Zm4.783-8.33v14.707a2.126,2.126,0,0,1-2.125,2.125H2.125A2.126,2.126,0,0,1,0,513.548V495.125A2.126,2.126,0,0,1,2.125,493h9.038a2.124,2.124,0,0,1,1.5.624l3.716,3.716A2.116,2.116,0,0,1,17.005,498.841ZM11.337,495.3v3.37h3.37Zm3.543,18.25V500.794H10.273a1.06,1.06,0,0,1-1.062-1.062v-4.606H2.125v18.423Z" transform="translate(0 -493)" fill="#fff"/>
</svg>
